<svg xmlns="http://www.w3.org/2000/svg" viewBox="0 0 64 64" fill="#fff" fill-rule="nonzero" stroke="#464646" stroke-linecap="round" stroke-linejoin="round"><g fill="#fffbcc"><path d="M5.5 13.5h13v9h-13z"/><path d="M18.5 13.5h13v9h-13z"/><path d="M31.5 13.5h13v9h-13z"/><path d="M44.5 13.5h13v9h-13z"/></g><path d="M5.5 22.5h13v9h-13z"/><path d="M18.5 22.5h13v9h-13z"/><path d="M31.5 22.5h13v9h-13z"/><path d="M44.5 22.5h13v9h-13zm-39 9h13v9h-13z"/><path d="M18.5 31.5h13v9h-13z"/><path d="M31.5 31.5h13v9h-13z"/><path d="M44.5 31.5h13v9h-13zm-39 9h13v9h-13z"/><path d="M18.5 40.5h13v9h-13z"/><path d="M31.5 40.5h13v9h-13z"/><path d="M44.5 40.5h13v9h-13z"/></svg>